<svg xmlns="http://www.w3.org/2000/svg" width="128" height="80" viewBox="0 0 128 80" fill="none"><path d="M9.49103 62.5918C8.83486 61.9944 8.02869 61.6933 7.07725 61.6933C6.1258 61.6933 5.28685 61.9897 4.62599 62.5918C3.96045 63.1891 3.59489 64.0687 3.52927 65.2305H10.4003C10.4518 64.0687 10.1472 63.1891 9.49572 62.5918M13.9014 66.8203H3.52927C3.58083 68.0856 3.92297 69.017 4.55102 69.6143C5.17906 70.2117 5.96176 70.5127 6.89914 70.5127C7.73341 70.5127 8.42708 70.3057 8.98014 69.8965C9.5332 69.4873 9.88472 68.9323 10.0394 68.2314H13.8452C13.6577 69.2239 13.2593 70.1129 12.6453 70.8984C12.0313 71.6839 11.2439 72.3001 10.2831 72.7469C9.3223 73.1891 8.25367 73.4149 7.07725 73.4149C5.69929 73.4149 4.47133 73.1185 3.39802 72.5306C2.32472 71.9426 1.49043 71.1007 0.89519 70.0047C0.299951 68.9135 0 67.62 0 66.1336C0 64.6472 0.299951 63.3537 0.89519 62.2484C1.49043 61.1477 2.32472 60.3058 3.39802 59.7225C4.47133 59.1392 5.69929 58.8523 7.07725 58.8523C8.4552 58.8523 9.69724 59.1439 10.7424 59.7225C11.7923 60.3058 12.5984 61.1054 13.1703 62.1214C13.7421 63.1374 14.028 64.2945 14.028 65.5974C14.028 65.9548 13.9858 66.3688 13.9014 66.8297" fill="white"></path><path d="M20.1725 63.1044C19.4929 63.8382 19.1508 64.8495 19.1508 66.1289C19.1508 67.4083 19.4929 68.4149 20.1725 69.1392C20.8522 69.8636 21.7567 70.2305 22.8816 70.2305C24.0065 70.2305 24.8689 69.8589 25.5766 69.1157C26.2843 68.3726 26.6358 67.3754 26.6358 66.1289C26.6358 64.8824 26.2843 63.8617 25.5766 63.1186C24.8689 62.3754 23.9737 62.0038 22.8816 62.0038C21.7896 62.0038 20.8568 62.3707 20.1725 63.1044ZM24.8079 59.6943C25.6516 60.2587 26.2609 61.0207 26.6358 61.9755V54.2568H30.212V73.2314H26.6358V70.2587C26.2609 71.2183 25.6516 71.9803 24.8079 72.5541C23.9643 73.128 22.9472 73.4149 21.7567 73.4149C20.5663 73.4149 19.4929 73.1232 18.5368 72.5447C17.5807 71.9614 16.8402 71.1242 16.3012 70.0188C15.7669 68.9182 15.495 67.62 15.495 66.1336C15.495 64.6472 15.7622 63.3537 16.3012 62.2484C16.8402 61.1477 17.5807 60.3058 18.5368 59.7225C19.4883 59.1392 20.5616 58.8523 21.7567 58.8523C22.9519 58.8523 23.969 59.1345 24.8079 59.699" fill="white"></path><path d="M46.7615 59.0263V73.2314H43.1573V70.3574C42.7823 71.317 42.1636 72.0602 41.3059 72.6011C40.4435 73.1373 39.4546 73.4101 38.3297 73.4101C36.694 73.4101 35.391 72.8739 34.4208 71.7967C33.4506 70.7196 32.9632 69.2144 32.9632 67.2859V59.031H36.5393V66.8767C36.5393 68.0056 36.8299 68.8805 37.4064 69.5061C37.9829 70.1317 38.7703 70.4421 39.7545 70.4421C40.795 70.4421 41.6199 70.1082 42.2339 69.4402C42.8479 68.7723 43.1526 67.8174 43.1526 66.5663V59.0263H46.7615Z" fill="white"></path><path d="M60.6394 60.334C61.858 61.3264 62.6173 62.6764 62.9266 64.3839H59.1208C58.9661 63.6313 58.6193 63.0386 58.0756 62.6011C57.5319 62.1637 56.8383 61.9473 56.0087 61.9473C55.0526 61.9473 54.2605 62.3048 53.6184 63.0104C52.9809 63.7206 52.6622 64.7601 52.6622 66.1242C52.6622 67.4882 52.9809 68.5325 53.6184 69.238C54.2558 69.9483 55.0526 70.301 56.0087 70.301C56.843 70.301 57.5319 70.0847 58.0756 69.6473C58.6193 69.2098 58.9708 68.6171 59.1208 67.8645H62.9266C62.6219 69.572 61.858 70.9266 60.6394 71.9144C59.4208 72.9069 57.9022 73.4008 56.079 73.4008C54.701 73.4008 53.473 73.1044 52.3997 72.5165C51.3264 71.9285 50.4922 71.0866 49.8969 69.9906C49.3017 68.8994 49.0017 67.6059 49.0017 66.1195C49.0017 64.6331 49.3017 63.3396 49.8969 62.2343C50.4922 61.1336 51.3264 60.2917 52.3997 59.7084C53.473 59.1251 54.701 58.8382 56.079 58.8382C57.9022 58.8382 59.4208 59.3321 60.6394 60.3246" fill="white"></path><path d="M68.9868 63.1044C68.3072 63.8382 67.9651 64.8495 67.9651 66.1289C67.9651 67.4083 68.3072 68.4149 68.9868 69.1392C69.6664 69.8636 70.571 70.2305 71.6959 70.2305C72.8207 70.2305 73.6831 69.8589 74.3909 69.1157C75.0986 68.3726 75.4501 67.3754 75.4501 66.1289C75.4501 64.8824 75.0986 63.8617 74.3909 63.1186C73.6831 62.3754 72.7879 62.0038 71.6959 62.0038C70.6038 62.0038 69.6664 62.3707 68.9868 63.1044ZM73.6363 59.6943C74.4893 60.2587 75.0939 61.0207 75.4501 61.9755V59.0264H79.0262V73.2314H75.4501V70.2587C75.0939 71.2183 74.4893 71.9803 73.6363 72.5541C72.7832 73.128 71.7615 73.4149 70.571 73.4149C69.3805 73.4149 68.3072 73.1232 67.3511 72.5447C66.395 71.9614 65.6544 71.1242 65.1154 70.0188C64.5811 68.9182 64.3093 67.62 64.3093 66.1336C64.3093 64.6472 64.5764 63.3537 65.1154 62.2484C65.6497 61.1477 66.395 60.3058 67.3511 59.7225C68.3026 59.1392 69.3759 58.8523 70.571 58.8523C71.7662 58.8523 72.7832 59.1345 73.6363 59.699" fill="white"></path><path d="M91.1186 75.1787C91.756 75.6256 92.0747 76.317 92.0747 77.2578C92.0747 78.1985 91.7513 78.8664 91.1045 79.3227C90.4577 79.7742 89.6563 80 88.7048 80H85.4099V78.0527H88.3205C89.1876 78.0527 89.6235 77.747 89.6235 77.1308C89.6235 76.8768 89.5157 76.6698 89.3048 76.5146C89.0892 76.3594 88.7657 76.2841 88.3205 76.2841H86.6332V73.0527H88.8032V74.5673C89.7078 74.5343 90.4765 74.7366 91.1139 75.1834M92.9043 60.3387C94.1229 61.3312 94.8822 62.6811 95.1915 64.3885H91.3857C91.2311 63.6359 90.8842 63.0433 90.3406 62.6058C89.7969 62.1684 89.1032 61.952 88.2689 61.952C87.3128 61.952 86.5207 62.3095 85.8786 63.0151C85.2412 63.7253 84.9224 64.7648 84.9224 66.1289C84.9224 67.493 85.2412 68.5372 85.8786 69.2427C86.516 69.953 87.3128 70.3057 88.2689 70.3057C89.1032 70.3057 89.7922 70.0894 90.3406 69.6519C90.8842 69.2145 91.2358 68.6218 91.3857 67.8693H95.1915C94.8869 69.5767 94.1229 70.9313 92.9043 71.9191C91.6857 72.9116 90.1671 73.4055 88.3439 73.4055C86.966 73.4055 85.738 73.1091 84.6647 72.5212C83.5914 71.9332 82.7571 71.0913 82.1619 69.9953C81.5667 68.9041 81.2667 67.6105 81.2667 66.1242C81.2667 64.6378 81.5667 63.3443 82.1619 62.239C82.7571 61.1383 83.5914 60.2963 84.6647 59.7131C85.738 59.1298 86.966 58.8429 88.3439 58.8429C90.1671 58.8429 91.6857 59.3368 92.9043 60.3293" fill="white"></path><path d="M101.252 63.1044C100.572 63.8382 100.23 64.8495 100.23 66.1289C100.23 67.4083 100.572 68.4149 101.252 69.1392C101.931 69.8636 102.836 70.2305 103.961 70.2305C105.086 70.2305 105.948 69.8589 106.656 69.1157C107.363 68.3725 107.715 67.3753 107.715 66.1289C107.715 64.8824 107.363 63.8617 106.656 63.1185C105.948 62.3754 105.048 62.0038 103.961 62.0038C102.873 62.0038 101.936 62.3706 101.252 63.1044ZM103.295 54.412C103.567 54.5296 103.89 54.7037 104.265 54.9247C104.57 55.1129 104.823 55.2493 105.02 55.3339C105.217 55.4186 105.423 55.4609 105.648 55.4609C105.953 55.4609 106.206 55.3575 106.403 55.1552C106.599 54.9482 106.721 54.6519 106.773 54.2568H108.638C108.469 55.3857 108.113 56.2276 107.579 56.7827C107.04 57.3377 106.356 57.6152 105.521 57.6152C105.165 57.6152 104.846 57.5541 104.565 57.4365C104.284 57.3189 103.947 57.1449 103.558 56.9238C103.253 56.7545 103.009 56.6274 102.831 56.5381C102.653 56.4534 102.451 56.4111 102.231 56.4111C101.603 56.4111 101.228 56.8109 101.106 57.6152H99.2644C99.6206 55.3575 100.652 54.2286 102.358 54.2286C102.714 54.2286 103.028 54.2897 103.305 54.4073M105.91 59.6895C106.763 60.254 107.368 61.016 107.724 61.9708V59.0216H111.3V73.2267H107.724V70.254C107.368 71.2135 106.763 71.9755 105.91 72.5494C105.057 73.1232 104.036 73.4102 102.845 73.4102C101.655 73.4102 100.581 73.1185 99.6253 72.54C98.6691 71.9567 97.9286 71.1195 97.3896 70.0141C96.8506 68.9134 96.5834 67.6152 96.5834 66.1289C96.5834 64.6425 96.8506 63.349 97.3896 62.2436C97.9286 61.143 98.6691 60.301 99.6253 59.7178C100.581 59.1345 101.65 58.8476 102.845 58.8476C104.04 58.8476 105.057 59.1298 105.91 59.6942" fill="white"></path><path d="M118.19 63.0386C117.492 63.7488 117.145 64.7789 117.145 66.1289C117.145 67.4788 117.492 68.5089 118.19 69.2192C118.889 69.9295 119.742 70.2822 120.745 70.2822C121.748 70.2822 122.601 69.9295 123.299 69.2192C123.997 68.5089 124.344 67.4788 124.344 66.1289C124.344 64.7789 123.993 63.7488 123.299 63.0386C122.601 62.3283 121.748 61.9755 120.745 61.9755C119.742 61.9755 118.889 62.3283 118.19 63.0386ZM124.461 59.7178C125.558 60.301 126.425 61.143 127.053 62.2437C127.681 63.3443 128 64.6425 128 66.1289C128 67.6152 127.686 68.9088 127.053 70C126.421 71.096 125.558 71.9379 124.461 72.5259C123.365 73.1139 122.123 73.4102 120.745 73.4102C119.367 73.4102 118.125 73.1139 117.028 72.5259C115.931 71.9379 115.064 71.096 114.436 70C113.803 68.9088 113.489 67.6152 113.489 66.1289C113.489 64.6425 113.803 63.349 114.436 62.2437C115.064 61.143 115.931 60.301 117.028 59.7178C118.125 59.1392 119.367 58.8476 120.745 58.8476C122.123 58.8476 123.365 59.1392 124.461 59.7178Z" fill="white"></path><path d="M39.2061 0H79.4246V9.09217H64.0608V47.9162H54.5745V9.09217H39.2061V0Z" fill="white"></path><path d="M0 7.98682C0 2.94919 2.93869 0 7.95839 0H34.463V9.09217H11.2627C10.1613 9.09217 9.48633 9.76951 9.48633 10.8749V18.984H28.7684V27.8316H9.48633V47.921H0V7.98682Z" fill="white"></path><path d="M102.719 0H87.1581C85.8739 0.014111 85.4286 1.73566 86.5207 2.41298L96.0211 8.29725C96.8601 8.81465 97.8255 9.09217 98.8098 9.09217H102.714C111.53 9.09217 118.382 14.8071 118.382 23.9605C118.382 33.1138 111.525 38.8288 102.714 38.8288H98.852C97.8631 38.8288 96.8929 39.1063 96.0492 39.6284L86.5301 45.5597C85.4614 46.2229 85.8973 47.9068 87.1534 47.921C87.1628 47.921 87.1722 47.921 87.1862 47.921H102.714C116.915 47.921 127.995 38.8288 127.995 23.9605C127.995 9.09219 116.915 0 102.714 0" fill="white"></path><path d="M102.1 15.8138L85.6068 5.60682C85.1662 5.33401 84.81 4.95772 84.5616 4.52027C84.5241 4.45442 84.4538 4.4121 84.3788 4.4121C84.2616 4.4121 84.1679 4.50615 84.1679 4.62374V13.7065C84.1679 14.7601 84.7116 15.7385 85.6068 16.2889L97.1225 23.4149C97.5256 23.6642 97.5256 24.2521 97.1225 24.5014L85.6068 31.6275C84.7116 32.1825 84.1679 33.1562 84.1679 34.2098V43.2926C84.1679 43.4102 84.2616 43.5043 84.3788 43.5043C84.4538 43.5043 84.5241 43.4619 84.5616 43.3961C84.81 42.9586 85.1662 42.5823 85.6068 42.3095L102.1 32.1026C108.137 28.3632 108.137 19.5532 102.1 15.8138Z" fill="white"></path></svg>